<svg width="30" height="24" viewBox="0 0 30 24" fill="none" xmlns="http://www.w3.org/2000/svg">
<g clip-path="url(#clip0_92_1329)">
<path d="M15.0002 1.5C14.6205 1.5 14.2455 1.56562 13.8893 1.69219L0.740858 6.44062C0.295546 6.60469 0.000233231 7.02656 0.000233231 7.5C0.000233231 7.97344 0.295546 8.39531 0.740858 8.55938L3.45492 9.53906C2.68617 10.7484 2.25023 12.1781 2.25023 13.6828V15C2.25023 16.3313 1.74398 17.7047 1.20492 18.7875C0.900233 19.3969 0.553358 19.9969 0.150233 20.55C0.000233233 20.7516 -0.0419543 21.0141 0.0424207 21.2531C0.126796 21.4922 0.323671 21.6703 0.567421 21.7313L3.56742 22.4813C3.7643 22.5328 3.97523 22.4953 4.14867 22.3875C4.32211 22.2797 4.44398 22.1016 4.48148 21.9C4.88461 19.8938 4.68305 18.0938 4.38305 16.8047C4.23305 16.1391 4.03148 15.4594 3.75023 14.8359V13.6828C3.75023 12.2672 4.22836 10.9312 5.05805 9.8625C5.66273 9.13594 6.44555 8.55 7.3643 8.18906L14.7237 5.29688C15.108 5.14687 15.544 5.33437 15.694 5.71875C15.844 6.10313 15.6565 6.53906 15.2721 6.68906L7.91273 9.58125C7.33148 9.81094 6.82055 10.1625 6.40336 10.5938L13.8846 13.2938C14.2409 13.4203 14.6159 13.4859 14.9955 13.4859C15.3752 13.4859 15.7502 13.4203 16.1065 13.2938L29.2596 8.55938C29.7049 8.4 30.0002 7.97344 30.0002 7.5C30.0002 7.02656 29.7049 6.60469 29.2596 6.44062L16.1112 1.69219C15.7549 1.56562 15.3799 1.5 15.0002 1.5ZM6.00023 19.125C6.00023 20.7797 10.0315 22.5 15.0002 22.5C19.969 22.5 24.0002 20.7797 24.0002 19.125L23.283 12.3094L16.6174 14.7188C16.0971 14.9062 15.5487 15 15.0002 15C14.4518 15 13.8987 14.9062 13.383 14.7188L6.71742 12.3094L6.00023 19.125Z" fill="#3B82F6"/>
</g>
<defs>
<clipPath id="clip0_92_1329">
<path d="M0 0H30V24H0V0Z" fill="white"/>
</clipPath>
</defs>
</svg>
